<?xml version="1.0" encoding="utf-8"?>
<!-- Generator: Adobe Illustrator 18.1.1, SVG Export Plug-In . SVG Version: 6.00 Build 0)  -->
<svg version="1.1" xmlns="http://www.w3.org/2000/svg" xmlns:xlink="http://www.w3.org/1999/xlink" x="0px" y="0px"
	 viewBox="0 0 90 90" enable-background="new 0 0 90 90" xml:space="preserve">
<g id="Layer_1">
	<path fill="#5959CF" d="M9.7,54.7c1.4-1.2,2.7-2,4-2.4c0.6-0.2,1.2-0.3,1.8-0.3c0.6,0,1.2,0.1,1.8,0.3c0.6,0.2,1.2,0.6,1.7,1.2
		c0.6,0.6,1.1,1.4,1.5,2.4c0.5,1,0.7,1.9,0.7,2.6c0,0.7-0.2,1.3-0.5,1.8c-0.3,0.5-0.8,0.9-1.3,1.2c-0.6,0.3-1.1,0.5-1.7,0.7
		c-0.6,0.2-1.2,0.3-1.8,0.3c-0.6,0.1-1.1,0.1-1.5,0.2c-0.7,0.1-1.2,0.3-1.6,0.7c-0.4,0.4-0.7,0.9-0.8,1.6c-0.1,0.7,0,1.6,0.3,2.7
		c0.3,1.1,0.8,2.3,1.6,3.8c0.5,1,1,1.9,1.5,2.5c0.5,0.6,1,1.2,1.6,1.5c0.5,0.4,1,0.6,1.5,0.7c0.5,0.1,0.9,0.2,1.3,0.2
		c0.4,0,0.7,0,0.9-0.1c0.2,0,0.4-0.1,0.5-0.1c0.1,0,0.2-0.1,0.4-0.1c0.2-0.1,0.4-0.2,0.5-0.3c0.2-0.1,0.3-0.3,0.3-0.5
		c0.1-0.2,0-0.4-0.2-0.6c-0.2-0.2-0.4-0.6-0.6-1.1c-0.2-0.5-0.4-1-0.4-1.6c0-0.5,0.2-1,0.5-1.5c0.4-0.5,1-0.8,2.1-0.9
		c1-0.1,1.8-0.1,2.6,0.1c0.7,0.2,1.3,0.4,1.7,0.8c0.5,0.3,0.8,0.7,1,1c0.2,0.4,0.4,0.6,0.5,0.8c0.1,0.2,0.3,0.5,0.6,1
		c0.3,0.5,0.7,1.2,1.1,1.9c0.4,0.7,0.9,1.4,1.3,2.2c0.5,0.7,0.9,1.4,1.2,2c0.3,0.6,0.6,1.1,0.8,1.7c0.2,0.5,0.3,1.1,0.2,1.5
		c0,0.5-0.2,0.9-0.5,1.2c-0.3,0.3-0.8,0.5-1.5,0.6c-0.7,0-1.3,0-1.8-0.1c-0.5-0.1-0.9-0.2-1.3-0.4c-0.4-0.2-0.7-0.4-0.9-0.6
		c-0.3-0.2-0.5-0.4-0.7-0.7C28,82.2,27.8,82,27.5,82c-0.3,0-0.6,0-0.9,0.1c-0.4,0.1-0.8,0.3-1.2,0.5c-0.6,0.4-1.4,0.6-2.4,0.7
		c-1,0.1-2,0-3.2-0.2c-1.1-0.2-2.3-0.7-3.6-1.2c-1.2-0.6-2.5-1.4-3.6-2.3c-1.2-1-2.3-2.1-3.4-3.4c-1.1-1.3-2-2.9-2.8-4.6
		c-0.6-1.3-1-2.5-1.2-3.7c-0.2-1.2-0.3-2.3-0.3-3.3c0-1,0.2-2,0.4-2.9c0.3-0.9,0.6-1.7,0.9-2.4C7.1,57.5,8.2,56,9.7,54.7z"/>
	<path fill="#FF2B57" d="M31.4,12.4c0.3,1.9,0.4,3.5,0.2,4.8c-0.2,1.3-0.6,2.5-1.2,3.4c-0.6,0.9-1.4,1.6-2.2,2.2
		c-0.9,0.5-1.8,1-2.7,1.3c-0.9,0.3-1.9,0.6-2.8,0.7c-0.9,0.1-1.7,0.3-2.4,0.4c-0.9,0.1-1.5,0.4-1.9,0.7c-0.4,0.4-0.6,0.7-0.7,1.1
		c-0.1,0.5-0.1,1,0,1.5c0.8,3.6,1.1,6.7,1.1,9.3c-0.1,2.5-0.4,4.6-1,6.3c-0.6,1.7-1.3,2.9-2.3,3.8c-0.9,0.9-1.9,1.5-2.8,1.9
		c-0.9,0.4-1.8,0.6-2.7,0.6c-0.8,0-1.4,0-1.8-0.1c-0.5-0.2-1-0.5-1.5-0.9C6,49.1,5.6,48.6,5.4,48c-0.3-0.6-0.3-1.4-0.2-2.4
		c0.2-1,0.7-2.1,1.7-3.6c0.9-1.4,1.5-3,1.6-4.8c0.2-1.8,0.1-3.8-0.1-5.9c-0.2-2.2-0.6-4.5-1-6.9c-0.4-2.5-0.8-5.1-1.1-7.8
		c-0.2-1.3-0.2-2.6,0-3.6c0.2-1.1,0.4-2,0.7-2.8c0.3-0.8,0.7-1.5,1.2-2.1c0.5-0.6,1-1.1,1.5-1.5c1.2-1,2.6-1.7,4.3-2
		c0.2,0,0.7-0.1,1.5-0.3c0.8-0.2,1.8-0.2,3-0.3c1.2,0,2.4,0,3.8,0.2c1.4,0.2,2.7,0.6,3.9,1.2c1.2,0.6,2.3,1.5,3.3,2.6
		C30.4,8.9,31.1,10.4,31.4,12.4z M21.8,17.2c0.2,0,0.4-0.2,0.6-0.4c0.1-0.2,0.2-0.5,0.1-0.9c0-0.2-0.2-0.4-0.4-0.6
		c-0.2-0.1-0.4-0.2-0.6-0.2c-0.5,0.1-0.8,0.2-1,0.4c-0.2,0.2-0.3,0.4-0.2,0.7C20.4,17,20.9,17.3,21.8,17.2z"/>
	<path fill="#FC9436" d="M22.3,31.1c0-0.8,0.2-1.5,0.6-2c0.4-0.5,0.8-0.8,1.3-1c0.5-0.2,1-0.3,1.5-0.2c0.5,0.1,0.9,0.2,1.2,0.5
		c0.3,0.3,0.6,0.8,0.8,1.3c0.2,0.5,0.3,1.1,0.4,1.7c0.1,0.6,0.1,1.2,0.1,1.7c0,0.6-0.1,1.1-0.1,1.4c0,0.5,0,0.9,0,1.4
		c0,0.5,0,1.1-0.1,1.8c0,0.7-0.1,1.5-0.2,2.5c-0.1,1-0.2,2.2-0.4,3.6c-0.2,1-0.1,1.7,0.2,2.1c0.3,0.4,0.6,0.6,1.1,0.7
		c0.5,0,1.1,0,1.7-0.2c0.7-0.2,1.3-0.5,2-0.7c0.6-0.3,1.2-0.6,1.8-0.9c0.5-0.3,1-0.5,1.3-0.6c0.3-0.1,0.7-0.2,1-0.3
		c0.3-0.1,0.6-0.2,0.9-0.2c0.3,0,0.6,0,1,0c0.3,0.1,0.7,0.2,1.2,0.4c0.4,0.2,0.6,0.5,0.6,0.9c0,0.4-0.1,0.8-0.3,1.2
		c-0.2,0.4-0.4,0.8-0.7,1.2c-0.3,0.3-0.4,0.6-0.5,0.6c-0.1,0.2-0.4,0.4-0.9,0.9c-0.5,0.4-1.1,0.9-1.9,1.4c-0.8,0.5-1.8,1.1-2.9,1.7
		c-1.1,0.6-2.4,1.1-3.8,1.6c-1.3,0.2-2.4,0.2-3.3,0.1c-0.9-0.1-1.6-0.3-2.2-0.5c-0.6-0.3-1-0.6-1.3-1c-0.3-0.4-0.5-0.8-0.7-1.2
		c-0.1-0.4-0.2-0.8-0.3-1.2c0-0.4-0.1-0.7-0.1-1c-0.1-0.1-0.1-0.5-0.1-1.1c0-0.6,0-1.3,0-2.2c0-0.9,0.1-1.8,0.1-2.9
		c0.1-1,0.1-2.1,0.2-3.2C21.8,37.1,22,34.2,22.3,31.1z"/>
	<path fill="#FF2B57" d="M79.4,59.8c0.8,0.5,1.4,1,1.9,1.6c0.5,0.6,0.9,1.2,1.2,1.9c0.3,0.7,0.4,1.3,0.5,2c0.1,0.7,0,1.4-0.1,2
		c-0.1,0.7-0.3,1.3-0.5,1.9c-0.3,0.6-0.6,1.1-0.9,1.6c-0.5,0.7-1.1,1.3-1.7,1.8c-0.6,0.5-1.3,0.9-2,1.2c-0.7,0.3-1.4,0.5-2.2,0.6
		c-0.8,0.1-1.5,0-2.3-0.1c-0.8-0.2-1.4-0.4-1.8-0.5c-0.5-0.2-0.8-0.4-1.1-0.6c-0.3-0.2-0.5-0.5-0.6-0.7c-0.1-0.3-0.2-0.6-0.3-1
		c-0.1-0.4-0.1-0.8,0-1.1c0.1-0.3,0.2-0.6,0.5-0.9c0.2-0.2,0.5-0.4,0.9-0.6c0.4-0.1,0.9-0.2,1.4-0.1c0.6,0,1.1-0.1,1.5-0.3
		c0.4-0.2,0.7-0.4,1-0.7c0.3-0.3,0.6-0.6,0.8-0.9c0.2-0.4,0.5-0.7,0.8-1.1c0.3-0.4,0.5-0.8,0.6-1.1c0.1-0.3,0.1-0.6,0-0.8
		c-0.1-0.2-0.1-0.4-0.2-0.5c-0.1-0.1-0.2-0.2-0.2-0.2c-0.1-0.1-0.2-0.2-0.4-0.3c-0.2-0.1-0.3-0.3-0.5-0.6c-0.1-0.2-0.2-0.5-0.3-0.8
		c0-0.3,0-0.7,0.2-1.1c0.2-0.3,0.4-0.4,0.6-0.6c0.2-0.1,0.4-0.3,0.6-0.3c0.2-0.1,0.4-0.1,0.6-0.1c0.2,0,0.4,0,0.6,0.1
		C78.5,59.3,79,59.5,79.4,59.8z M76.8,70.5c0.1,0.2,0.3,0.3,0.5,0.3c0.2,0,0.4,0,0.6-0.1c0.2-0.1,0.4-0.2,0.6-0.4
		c0.2-0.2,0.4-0.4,0.5-0.7c0.3-0.6,0.6-1.1,0.8-1.6c0.2-0.5,0.3-0.9,0.3-1.3c0-0.2-0.1-0.4-0.2-0.5c-0.1-0.1-0.2-0.2-0.3-0.2
		c-0.1,0-0.2,0-0.3,0c-0.1,0-0.2,0-0.2,0c-0.4,0.4-0.8,0.8-1.1,1.1c-0.1,0.1-0.3,0.3-0.4,0.5c-0.1,0.2-0.3,0.3-0.4,0.4
		c-0.1,0.1-0.2,0.3-0.3,0.4c-0.1,0.1-0.2,0.2-0.2,0.3c-0.1,0.1-0.1,0.2-0.2,0.4c-0.1,0.2-0.1,0.3-0.2,0.5c0,0.2,0,0.4,0,0.5
		C76.5,70.2,76.6,70.3,76.8,70.5z"/>
	<path fill="#FF3838" d="M21,65.7c-0.1-0.7-0.1-1.3,0-1.7c0.1-0.5,0.4-0.9,0.7-1.3c0.3-0.3,0.7-0.6,1-0.8c0.4-0.2,0.8-0.4,1.2-0.5
		c0.4-0.1,0.7-0.1,1-0.1c0.3,0,0.5,0,0.7,0.1c0.3,0.2,0.5,0.4,0.7,0.4c0.2,0,0.4,0,0.6-0.1c0.2-0.1,0.3-0.2,0.4-0.4
		c0.1-0.2,0.2-0.3,0.2-0.5c0.1-0.2,0.1-0.4,0.2-0.8c0.1-0.4,0.2-0.9,0.4-1.4c0.2-0.6,0.5-1.2,0.9-1.8c0.4-0.6,1-1.3,1.7-1.9
		c0.8-0.5,1.6-0.8,2.4-0.8c0.8,0,1.6,0.1,2.3,0.4c0.7,0.3,1.4,0.7,1.9,1.2c0.6,0.5,1,1,1.3,1.5c0.2,0.4,0.4,0.8,0.4,1.1
		s0,0.7-0.1,1.1c-0.1,0.3-0.3,0.6-0.7,0.9c-0.3,0.3-0.8,0.5-1.4,0.7c-0.5,0.1-0.9,0.3-1.2,0.6c-0.3,0.3-0.5,0.6-0.7,1
		c-0.2,0.4-0.3,0.7-0.4,1.1c-0.1,0.4-0.1,0.7-0.1,0.9c-0.1,0.4,0.1,0.9,0.4,1.5c0.3,0.6,0.7,1.2,1.1,1.9c0.5,0.7,0.9,1.3,1.4,1.9
		c0.5,0.6,0.8,1.1,1,1.5c0.2,0.3,0.3,0.6,0.5,1c0.2,0.4,0.3,0.8,0.3,1.3c0,0.4-0.1,0.9-0.4,1.3c-0.3,0.4-0.8,0.9-1.5,1.2
		c-0.7,0.4-1.9,0.9-2.4,0.8c-0.5-0.1-0.9-0.3-1.3-0.6c-0.3-0.3-0.6-0.7-0.8-1.2c-0.2-0.5-0.3-0.9-0.4-1.3c-0.2-0.3-0.4-0.7-0.7-1.3
		c-0.3-0.6-0.6-1.2-0.9-1.9c-0.3-0.7-0.7-1.3-1-1.9c-0.4-0.6-0.7-1-1-1.4c-0.5-0.4-0.9-0.6-1.2-0.7c-0.3-0.1-0.6-0.1-1-0.1
		c-0.3,0.1-0.7,0.2-1.2,0.5c-0.5,0.3-0.5,0.2-1.2,0.6c-0.6,0.4-1.1,0.6-1.5,0.4c-0.4-0.2-0.8-0.4-1-0.8C21.5,67,21.2,66.4,21,65.7z"
		/>
	<path fill="#2EABD6" d="M43.2,60.1c1-0.1,1.9-0.1,2.7,0.2c0.8,0.3,1.5,0.6,2.1,1.1c0.6,0.5,1.1,1.1,1.6,1.7c0.4,0.7,0.8,1.3,1.1,2
		c0.3,0.6,0.5,1.2,0.7,1.8c0.2,0.5,0.3,0.9,0.4,1.2c0.1,0.3,0.2,0.8,0.2,1.3c0,0.6,0,1.2-0.1,1.9c-0.1,0.7-0.3,1.4-0.6,2.1
		c-0.3,0.7-0.7,1.4-1.3,2c-0.6,0.6-1.3,1.1-2.2,1.5c-0.9,0.4-2,0.7-3.3,0.7c-0.9,0-1.8-0.1-2.6-0.3c-0.8-0.3-1.4-0.6-2-1.1
		c-0.6-0.5-1.1-1-1.6-1.7c-0.5-0.6-0.9-1.3-1.2-1.9c-0.8-1.5-1.3-3.3-1.7-5.3c0-0.8,0.1-1.5,0.4-2.3c0.2-0.7,0.6-1.4,1.2-2
		c0.6-0.6,1.4-1.2,2.4-1.7C40.2,60.8,41.6,60.4,43.2,60.1z M48.6,71.3c0-0.1,0-0.3,0-0.5c0-0.2,0-0.5-0.1-0.8c0-0.3-0.1-0.6-0.2-0.9
		c-0.1-0.3-0.2-0.6-0.4-0.9c-0.2-0.3-0.4-0.5-0.6-0.7c-0.3-0.2-0.6-0.3-1-0.4c-0.7-0.1-1.2-0.2-1.7-0.2c-0.5,0-0.9,0.1-1.2,0.3
		c-0.3,0.2-0.6,0.4-0.8,0.7c-0.2,0.3-0.4,0.6-0.5,0.9C42,69.6,41.9,70.3,42,71c0,0.3,0.1,0.6,0.2,0.9c0.1,0.3,0.2,0.6,0.4,0.8
		c0.2,0.3,0.4,0.5,0.6,0.7c0.3,0.2,0.6,0.3,1,0.4c0.8,0.2,1.5,0.2,2.1,0c0.6-0.2,1-0.4,1.4-0.8c0.3-0.3,0.6-0.7,0.7-1.1
		C48.6,71.7,48.6,71.5,48.6,71.3z"/>
	<path fill="#FFC947" d="M43.3,49.9c0.7-0.2,1.3-0.2,1.7,0c0.5,0.2,0.8,0.5,1.1,0.9c0.3,0.4,0.5,0.9,0.7,1.5
		c0.2,0.6,0.3,1.1,0.3,1.7c0.1,0.6,0.1,1.1,0.1,1.6c0,0.5,0,0.9,0.1,1.2c0.1,0.4,0.1,0.8,0.3,1.1c0.1,0.3,0.3,0.6,0.5,0.8
		c0.2,0.2,0.5,0.3,0.9,0.4c0.4,0.1,0.8,0.1,1.4,0c0.4-0.1,0.7-0.2,0.8-0.5c0.2-0.3,0.3-0.6,0.3-1c0-0.4,0-0.9-0.1-1.3
		c-0.1-0.5-0.2-1-0.3-1.4c-0.1-0.5-0.2-0.9-0.3-1.3c-0.1-0.4-0.2-0.7-0.2-1c-0.1-0.4-0.1-0.8-0.1-1.3c0-0.4,0-0.8,0.2-1.1
		c0.1-0.3,0.3-0.6,0.6-0.9c0.3-0.2,0.6-0.4,1.1-0.5c0.5-0.1,0.9-0.1,1.3,0c0.4,0.1,0.8,0.2,1,0.4c0.3,0.2,0.5,0.4,0.7,0.6
		c0.2,0.2,0.3,0.4,0.3,0.6c0,0.1,0.1,0.4,0.2,0.7c0.1,0.3,0.2,0.7,0.4,1.2c0.2,0.5,0.3,0.9,0.5,1.4c0.2,0.5,0.3,1,0.5,1.5
		c0.2,0.5,0.3,0.9,0.4,1.4c0.1,0.4,0.2,0.7,0.2,1c0.1,0.4,0.1,0.6,0.3,0.8c0.1,0.1,0.3,0.3,0.4,0.3c0.2,0.1,0.3,0.2,0.4,0.3
		c0.1,0.1,0.2,0.3,0.3,0.6c-0.1,0.3-0.2,0.6-0.5,0.8c-0.3,0.2-0.6,0.4-0.9,0.5c-0.3,0.1-0.7,0.2-1,0.3c-0.3,0.1-0.6,0.1-0.8,0.1
		c-0.1,0-0.2-0.1-0.3-0.1c-0.1,0-0.2-0.1-0.3-0.1c-0.1,0-0.2,0-0.4,0c-0.2,0-0.4,0.1-0.8,0.2c-0.4,0.1-0.8,0.3-1.4,0.5
		c-0.6,0.2-1.3,0.5-2.1,0.9c-0.9,0.4-1.7,0.6-2.5,0.7c-0.8,0.1-1.5,0.1-2.2,0c-0.7-0.1-1.3-0.2-1.8-0.5c-0.5-0.2-1-0.5-1.4-0.9
		c-0.4-0.3-0.7-0.7-0.9-1.1c-0.2-0.4-0.3-0.8-0.3-1.2l-0.9-6.1c-0.1-1-0.1-1.7,0.1-2.2c0.2-0.5,0.5-0.9,0.8-1.1
		C42.3,50,42.8,49.9,43.3,49.9z"/>
	<path fill="#007DF5" d="M53.6,43.7c0.3-0.6,0.6-1.1,0.9-1.5c0.3-0.3,0.6-0.5,0.9-0.7c0.3-0.1,0.7,0,1.1,0.4c0.4,0.3,0.7,0.5,1,0.5
		c0.3,0,0.5,0,0.8-0.1c0.2-0.1,0.4-0.3,0.5-0.4c0.1-0.2,0.3-0.3,0.4-0.4c0.1,0,0.2-0.2,0.4-0.5c0.2-0.4,0.5-0.8,0.9-1.2
		c0.4-0.4,0.9-0.8,1.5-1.2c0.6-0.4,1.4-0.5,2.3-0.6c1,0.1,1.8,0.3,2.5,0.7c0.7,0.4,1.2,0.8,1.6,1.4c0.4,0.5,0.7,1.1,0.9,1.8
		c0.2,0.6,0.4,1.2,0.4,1.8c0.1,0.6,0.1,1.1,0.1,1.6c0,0.5,0,0.8,0,1c0,0.3,0.1,0.9,0.2,1.8c0.1,0.9,0.3,1.8,0.6,2.9
		c0.3,1.1,0.6,2.2,1.1,3.4c0.4,1.2,1,2.2,1.6,3.2c0.6,0.9,1,1.8,1,2.7c0.1,0.9-0.1,1.8-0.5,2.5c-0.4,0.8-1,1.4-1.7,1.9
		c-0.7,0.5-1.6,0.7-2.5,0.8c-0.6,0-1.1-0.3-1.5-1c-0.4-0.7-0.7-1.5-0.9-2.5c-0.2-1-0.4-2.1-0.5-3.3c-0.1-1.2-0.2-2.3-0.2-3.4
		c0-1.1,0-2,0-2.7c0-0.8,0-1.2,0-1.4c0-0.3,0-0.7-0.1-1.3c-0.1-0.5-0.2-1.1-0.3-1.6c-0.2-0.5-0.4-1-0.7-1.3
		c-0.3-0.4-0.7-0.5-1.1-0.5c-0.5,0-0.8,0.2-1.1,0.6c-0.2,0.4-0.4,0.8-0.5,1.2c-0.1,0.4-0.2,0.9-0.2,1.3c0,0.4,0,0.7,0,0.8
		c0.1,0.1,0.2,0.5,0.2,1.2c0,0.7,0.1,1.5,0.1,2.5c0,0.9,0,1.9,0,2.8c0,0.9-0.1,1.7-0.2,2.2c0,0.7,0,1.4,0.1,2.1
		c0.1,0.7,0.1,1.4,0,2.1c-0.1,0.6-0.3,1.1-0.7,1.5c-0.4,0.4-1,0.5-2,0.4c-0.7-0.1-1.2-0.5-1.6-1c-0.4-0.5-0.7-1.1-0.9-1.9
		c-0.2-0.7-0.3-1.5-0.3-2.4c0-0.8,0-1.7,0-2.5c0-0.8,0.1-1.6,0.2-2.3c0.1-0.7,0.2-1.3,0.2-1.7c0-1.3-0.2-2.5-0.6-3.7
		c-0.4-1.1-1.1-1.9-2-2.4c-0.6-0.2-1-0.5-1.2-0.9c-0.2-0.4-0.4-0.8-0.4-1.2C53.4,44.7,53.5,44.2,53.6,43.7z"/>
	<path fill="#FFC947" d="M47.1,40.6c-2.5,0.6-3,3.9-3,4.6c0,0.7,1.5,3,3.5,2.2C49.6,46.7,52.3,39.4,47.1,40.6z"/>
	<path fill="#45D975" d="M64,30.9c0.7,0.8,1.2,1.6,1.4,2.2c0.2,0.6,0.2,1.2-0.1,1.6c-0.3,0.5-0.8,0.9-1.6,1.2
		c-0.8,0.3-1.8,0.7-3.2,0.9c-1.3,0.2-2.4,0.2-3.2-0.1c-0.8-0.3-1.4-0.7-1.9-1.2c-0.5-0.5-0.9-1.2-1.2-1.9c-0.3-0.7-0.7-1.4-1.1-2.2
		c-0.3-0.5-0.6-0.8-0.9-0.9c-0.3-0.1-0.6,0-0.9,0.2c-0.3,0.2-0.6,0.5-1,1c-0.3,0.4-0.6,0.9-0.9,1.4c-0.3,0.5-0.6,1-0.9,1.5
		c-0.3,0.5-0.6,1-0.8,1.3c-0.2,0.6-0.6,1.1-1,1.7c-0.4,0.6-1,1.1-1.7,1.6c-0.7,0.5-1.5,0.8-2.5,1.1c-1,0.3-2,0.4-3.3,0.3
		c-1.1-0.1-2-0.3-2.9-0.7c-0.8-0.4-1.5-0.8-1.9-1.3c-0.4-0.5-0.6-1.1-0.5-1.8c0.1-0.7,0.5-1.4,1.3-2.1c0.3-0.3,0.7-0.9,1.1-1.7
		c0.4-0.8,0.9-1.7,1.3-2.8s0.9-2.2,1.4-3.5c0.5-1.2,0.9-2.5,1.4-3.7c1-2.9,2.1-6.1,3.2-9.6c0.2-0.5,0.5-1,0.9-1.5
		c0.4-0.4,0.9-0.7,1.5-1c0.6-0.3,1.5-0.5,2.5-0.6c0.9,0,1.7,0.1,2.3,0.3c0.7,0.2,1.2,0.6,1.7,1s0.9,0.9,1.2,1.4
		c0.3,0.5,0.6,1,0.8,1.5c0.1,0.3,0.4,0.8,0.7,1.5c0.4,0.7,0.8,1.6,1.3,2.6c0.5,1,1.1,2.1,1.7,3.3c0.6,1.2,1.2,2.3,1.9,3.4
		c0.6,1.1,1.2,2.2,1.8,3.1C63,29.5,63.5,30.3,64,30.9z M51.1,25.7c0.4-0.1,0.7-0.2,0.9-0.4c0.2-0.2,0.2-0.4,0.3-0.6
		c0-0.3-0.1-0.5-0.2-0.8l-0.9-2.2c0.1-0.1,0.1-0.1,0.1-0.2c0,0-0.1-0.1-0.2-0.1c-0.1,0-0.3,0-0.6,0c-0.3,0-0.5,0.1-0.7,0.3
		c-0.1,0.1-0.2,0.3-0.3,0.4c-0.1,0.2-0.1,0.3-0.1,0.5l0.2,1.7c0,0.2,0.1,0.4,0.1,0.5c0,0.2,0.1,0.4,0.2,0.5c0.1,0.2,0.2,0.3,0.4,0.4
		C50.5,25.7,50.8,25.7,51.1,25.7z"/>
	<path fill="#2EABD6" d="M56.9,26.2c-0.2-0.3-0.3-0.7-0.4-1.3c-0.1-0.6-0.1-1.3,0.1-2c0.2-0.7,0.6-1.4,1.2-2.2
		c0.6-0.7,1.6-1.3,2.9-1.9c1.1-0.5,2-0.7,2.7-0.7c0.8,0,1.4,0.2,1.9,0.6c0.5,0.3,1,0.8,1.3,1.4c0.3,0.6,0.6,1.2,0.8,1.8
		c0.2,0.6,0.3,1.3,0.4,1.9c0.1,0.6,0.1,1.1,0.1,1.5c-0.1,0.6-0.2,1.2-0.1,1.7c0,0.5,0.2,0.9,0.5,1.2c0.3,0.3,0.7,0.4,1.2,0.5
		c0.5,0,1.2-0.1,2.1-0.4c0.9,0,1.4-0.2,1.7-0.7c0.3-0.4,0.4-1,0.3-1.6c-0.1-0.6-0.2-1.3-0.5-2c-0.3-0.7-0.5-1.3-0.6-1.9
		c-0.3-0.4-0.6-1-0.7-1.7c-0.2-0.8-0.2-1.6-0.1-2.4c0.1-0.9,0.5-1.7,1.1-2.4c0.6-0.8,1.6-1.3,2.9-1.7c1.1-0.1,2,0,2.8,0.3
		c0.8,0.3,1.5,0.7,2.1,1.3c0.6,0.6,1,1.2,1.4,1.9c0.4,0.7,0.6,1.4,0.8,2.2c0.2,0.7,0.3,1.4,0.3,2.1c0,0.7,0,1.2-0.1,1.6
		C83,23.5,83,23.9,83,24.2c0,0.3,0.1,1,0.1,1s0.2,0.8,0.3,1.4c0.2,0.5,0.3,1.2,0.5,2.1c0.2,0.9,0.4,1.9,0.6,3.2
		c0.2,1.3,0.5,2.8,0.8,4.7c0.4,2.6,0.5,4.8,0.2,6.6c-0.3,1.8-0.7,3.3-1.4,4.5c-0.6,1.2-1.4,2.2-2.2,2.9c-0.8,0.8-1.6,1.4-2.3,2
		c-0.6,0.3-1.2,0.6-2,0.9c-0.8,0.3-1.6,0.6-2.4,0.8c-0.8,0.2-1.7,0.3-2.5,0.3c-0.8,0-1.6-0.1-2.3-0.4c-0.7-0.3-1.3-0.8-1.8-1.4
		c-0.5-0.7-0.8-1.6-0.9-2.8c-0.2-1.6,0-2.8,0.5-3.7c0.6-0.9,1.3-1.5,2.1-1.8c0.8-0.4,1.7-0.5,2.5-0.6c0.8,0,1.4,0,1.7,0.1
		c0.3,0.3,0.8,0.3,1.5,0c0.7-0.2,1.3-0.8,1.9-1.8c0.3-0.2,0.5-0.5,0.8-1c0.2-0.5,0.4-1.1,0.4-1.7c0-0.6-0.1-1.3-0.3-1.9
		c-0.3-0.7-0.7-1.2-1.4-1.7c-0.7-0.5-1.6-0.8-2.8-0.9c-1.2-0.2-2.7-0.1-4.5,0.3c-1.3,0.2-2.5,0.3-3.6,0.2c-1.1-0.1-2-0.4-2.9-0.7
		c-0.9-0.4-1.6-0.8-2.3-1.4c-0.7-0.6-1.3-1.1-1.7-1.8C58.4,30,57.5,28.2,56.9,26.2z"/>
</g>
<g id="Layer_2" display="none">
	<g display="inline">
		<path fill="#5D5D5D" d="M45,90h45V45C90,69.9,69.9,90,45,90z"/>
		<path fill="#5D5D5D" d="M45,0c24.9,0,45,20.1,45,45V0H45z"/>
		<path fill="#5D5D5D" d="M0,45v45h45C20.1,90,0,69.9,0,45z"/>
		<path fill="#5D5D5D" d="M45,0H0v45C0,20.1,20.1,0,45,0z"/>
	</g>
</g>
</svg>
