<?xml version="1.0" encoding="utf-8"?>
<!-- Generator: Adobe Illustrator 18.1.1, SVG Export Plug-In . SVG Version: 6.00 Build 0)  -->
<svg version="1.1" id="mask_circle" xmlns="http://www.w3.org/2000/svg" xmlns:xlink="http://www.w3.org/1999/xlink" x="0px"
	 y="0px" viewBox="0 0 90 90" enable-background="new 0 0 90 90" display="none" xml:space="preserve">
<path display="inline" fill="#D42348" d="M8.3,46.7L7,12.5c0,0,5.7-0.2,7.8-0.2c3.2,0,5.6,0.5,7.2,1.4c2.5,1.4,3.4,2.9,3.4,7.7
	l0,2.3c-0.2,4.8-1.3,7.9-3.3,9.3c-2.1,1.3-4.6,2.1-7.7,2.2c0,0.5,0,1,0,1.5c0,2.5,0.2,4.9,0.4,8.8L8.3,46.7z M14.3,18.6l0.2,11.2
	c2.9-0.2,4.6-1.2,5.1-3c0.2-0.9,0.2-1.9,0.3-3.3c0.4-3.8-2.1-5-4-5C15.5,18.4,14.9,18.5,14.3,18.6z"/>
<path display="inline" fill="#DB812F" d="M35.4,8.5c-0.3,8-1.6,22-1.6,23.9L46.3,34l-2.7,9.7l-14.7-0.8c0-2,0-5.1,0-7.1
	c0-9.2-0.1-19.7-0.4-28.8L35.4,8.5z"/>
<path display="inline" fill="#3DBF67" d="M47,44.1c2.7-11.9,5.6-19.7,7.3-28l7.2-2.1c2,8.6,6,19.2,8.6,30.3l-5.7,3.3l-1.9-10.1
	l-7.9,0.2l-2,8.8L47,44.1z M61.5,29.5l-2.6-6.4l-3.2,7.4L61.5,29.5z"/>
<path display="inline" fill="#2895BA" d="M73.7,43.3l-1-15.1L64.8,11l6.8-0.2L76,23.7c1.8-5.8,2.2-11.1,3.2-14l6.7-2.9
	c-3.4,8.7-5.7,16.7-7.2,20.6l0.5,14.8L73.7,43.3z"/>
<path display="inline" fill="#4F4FBA" d="M16.9,62.9l-3.5,1.1c0.1-3.9-0.8-4.2-2.1-4.4H11c-1.1,0-2,0.4-2.7,2.3s-1.1,4.5-1.1,7.9
	v0.8c0.1,3.8,1.1,5.8,3.3,5.8c1.5,0,2.2-1.5,2.2-4.4c0-0.3,0-0.6,0-0.9l-3.2,1l0.3-4.3l8.3-2.9l0.4,4.6L16,70.4c0,6.7-2.1,12-6.5,12
	c-4,0-5.9-4.5-5.9-12.4c0-0.7,0-1.3,0-2.1c0.4-9.3,2.8-14.1,7.2-14.5c0.2,0,0.4,0,0.6,0C15.1,53.4,17.4,55.7,16.9,62.9z"/>
<path display="inline" fill="#D62E2E" d="M20.6,78.6c0.1-3.5-1.6-23-1.7-28.6c1.4-0.2,3.6,0.4,4.8,0.4c3.2,0,5.3-0.1,6.1,1.4
	c0.8,1.4,1.1,2.3,1.1,4.1c0,5.5-1.5,8.1-3.4,8.5c1.2,0.2,1.9,1.7,2.5,3.1c0.9,2,0.9,13,0.9,13l-4.3-1.1c0.1-1.6,0.1-3.3,0.1-4.5
	c0-3.7-0.1-5.6-0.5-6.4c-0.5-0.9-1.2-1.3-1.9-1.3c-0.1,0-0.5,0.1-0.7,0.1c0.1,3.7,0.3,8.2,0.4,11.7L20.6,78.6z M23.3,55l0.1,7.8
	c1.7-0.1,3-0.8,3.4-2.2c0.3-0.8-0.1-1.5,0.1-2.4c0.5-2.9-1.2-3.2-2.5-3.2C24.1,55,23.7,55,23.3,55z"/>
<path display="inline" fill="#2895BA" d="M39.2,56.1c4.1,0,6.1,4.6,6.1,13.7c0,9.2-2.2,14.4-6.6,14.4s-6.6-5.4-6.6-14.9
	C32.2,60.5,34.5,56.1,39.2,56.1z M36.3,68.8c0,0.3,0,0.6,0,1c0,4.8,0.9,7.2,2.6,7.2c1.8,0,2.7-2.7,2.7-8.2s-0.8-8.2-2.5-8.2
	C37.3,60.7,36.4,63.4,36.3,68.8z"/>
<path display="inline" fill="#E3B33F" d="M59,54.9v16.2c0,5.6-2.1,9-6.2,9h-0.3c-3.4-0.5-5.4-3.5-5.3-7.7c0.2-8.7-0.6-16.9-0.7-21.8
	l4.3,1.2c-0.1,2.8,0,6.8,0,10.5c0,2.6,0,5.5,0.1,8.6c0,2.3,0.7,3.4,2,3.4c0,0,0,0,0,0c1.3,0,1.9-1.5,1.9-4.4l0-16.2L59,54.9z"/>
<path display="inline" fill="#0070DB" d="M60.8,82.3c0-4.4,0.2-8.9,0.2-12.9c0-4.6,0-8.3-0.2-12.6l4.3-2l4,14.9
	c0-4.8-0.1-12.3-0.2-17.3l4.5-2.4c-0.5,7.5-0.7,20.1-0.7,27.8c0,1,0,2.7,0,3.7h-3.7l-4.5-15.4c0.1,5.5,0.4,11.4,0.4,15.9L60.8,82.3z
	"/>
<path display="inline" fill="#D42348" d="M74.9,77.9c0-4.1,0-8.8,0-13.2c0-4.4,0-8.9,0-13.5C76,51.1,77,51,78,51
	c2.6,0,4.5,0.7,5.8,2c1.7,1.8,2.6,5.2,2.6,10.1v1.3c0,4.2-0.3,7.2-1,9c-0.7,2-2,3.7-3.9,4.4c-1.1,0.4-2.3,0.6-3.6,0.6
	C77,78.3,76,78.2,74.9,77.9z M78.5,55.9c-0.2,4,0.1,7.4,0.1,11.1c0,1.4,0,2.8,0,4.2c0.3,0.1,0.7,0.1,1,0.1c0.8,0,1.6-0.4,2.1-1.1
	c0.8-1,1.2-3.3,1.2-6.8v-0.1c0-3.5-0.3-5.5-1.1-6.6c-0.6-0.8-1.6-1.1-2.4-1.1C79.2,55.8,78.8,55.8,78.5,55.9z"/>
<path display="inline" fill="#FF2B57" d="M8.3,43.6L6.5,10.3c0,0,6.2-1,8.3-1c3.2,0,5.6,0.5,7.2,1.4c2.5,1.4,3.4,4.8,3.4,9.2v0.8
	c-0.2,4.8-1.3,7.9-3.3,9.3s-4.6,2.1-7.7,2.2c0,0.5,0,1,0,1.5c0,2.5,0,5.4,0.3,8.8L8.3,43.6z M14.3,15.6l0.2,11.2
	c2.9-0.2,4.6-1.2,5.1-3c0.2-0.9,0.4-1.7,0.4-2.6c0-1.1-0.2-2.1-0.5-3.2c-0.5-1.6-1.6-2.4-3.5-2.4C15.5,15.4,14.9,15.5,14.3,15.6z"/>
<path display="inline" fill="#FC9436" d="M35.9,7.8c-0.3,8-1.8,22.3-1.8,24.2l12.2,2l-1.8,6.5l-15.6-0.6c0-2,0-4,0-6
	c0-9.2-0.2-18.4-0.6-27.5L35.9,7.8z"/>
<path display="inline" fill="#45D975" d="M47.6,41.4c2.7-11.9,4.9-19,6.6-27.3l7.2-2.1c2,8.6,5.3,18.5,7.9,29.5l-5.6,3.1L62,34.6
	h-6.8l-1.8,8.6L47.6,41.4z M61.8,28.7c-0.8-3-1.7-6.9-2.7-10.8c-1.3,3.5-2.4,7.2-3.4,11L61.8,28.7z"/>
<path display="inline" fill="#2EABD6" d="M73.5,40.5l-1-12.5l-7.8-17l6.8-2.2L76,21.7c1.8-5.8,2.2-11.1,3.2-14l7-1.1
	c-3.4,8.7-5.8,17-7.3,20.9l0.3,11.7L73.5,40.5z"/>
<path display="inline" fill="#5959CF" d="M16.9,61.2l-3.5,1c-0.1-3.3-0.7-5-2-5.2h-0.3c-1.1,0-2.1,0.9-2.8,2.8s-1.1,4.5-1.1,7.9v0.8
	c0.1,3.8,1.1,5.8,3.3,5.8c1.5,0,2.2-1.5,2.2-4.4c0-0.3,0-0.6,0-0.9l-3.1,1.1l0.2-4.3l8.1-2.8l0.5,5l-2.2,0.7
	c0,6.7-2.2,11.1-6.5,11.1c-4,0-6-3.9-6-11.8c0-0.7,0-1.3,0-2.1c0.4-9.3,2.8-14.1,7.2-14.5c0.2,0,0.4,0,0.6,0c3.7,0,5.5,3.1,5.5,9.2
	C16.9,61.1,16.9,60.6,16.9,61.2z"/>
<path display="inline" fill="#FF3838" d="M20.5,76.3c0.1-3.5-1.7-21.9-1.8-27.5c1.4-0.2,3.7-0.3,4.9-0.3c3.2,0,5.2,0.8,6.1,2.3
	c0.8,1.4,1.2,3,1.2,4.7c0,0.8-0.1,1.6-0.2,2.4c-0.5,2.7-1.7,4.4-3.4,5.1c1.2,0.2,2.1,1.1,2.7,2.6c0.6,1.4,0.9,6.1,0.9,11.9v0.8
	l-4.2-0.9c0-1.5,0.1-2.9,0.1-4.2c0-3.7-0.2-6-0.7-6.8c-0.5-0.9-1.1-1.4-1.9-1.4c-0.1,0-0.3,0-0.4,0.1c0.1,3.7,0,8.3,0.2,11.6
	L20.5,76.3z M23.4,53.1l0.1,7.9c1.7-0.1,2.8-0.9,3.3-2.3c0.3-0.8,0.4-1.5,0.4-2.2c0-0.6-0.1-1.2-0.3-1.8c-0.3-1-1.2-1.6-2.5-1.6
	C24.1,53.1,23.7,53.1,23.4,53.1z"/>
<path display="inline" fill="#2EABD6" d="M39.2,54.1c4.1,0,6.1,4.6,6.1,13.7c0,9.2-2.2,13.8-6.6,13.8s-6.6-4.8-6.6-14.3
	C32.2,58.5,34.5,54.1,39.2,54.1z M36.3,66.8c0,0.3,0,0.6,0,1c0,4.8,0.9,7.2,2.6,7.2c1.8,0,2.7-2.7,2.7-8.2s-0.8-8.2-2.5-8.2
	C37.3,58.7,36.4,61.4,36.3,66.8z"/>
<path display="inline" fill="#FFC947" d="M59,52.9v16.2c0,5.6-2.1,8.4-6.2,8.4h-0.3c-3.4-0.5-5.2-2.8-5.3-7c0-8.4-0.7-16.6-0.8-21.5
	l4.5,1.6c-0.1,2.8-0.1,6-0.1,9.8c0,2.6,0,5.5,0.1,8.6c0,2.3,0.7,3.4,2,3.4c0,0,0,0,0,0c1.3,0,1.9-1.5,1.9-4.4l-0.1-16L59,52.9z"/>
<path display="inline" fill="#007DF5" d="M60.7,79.7c0.1-4.2,0.2-8.3,0.2-12.3c0-4.6-0.1-8-0.2-12.3l4.3-2.3l4,14.9
	c0-4.8-0.1-10.6-0.3-15.6l4.6-2.1c-0.5,7.5-0.7,18.1-0.7,25.8c0,1,0,2.1,0,3.1l-4,0.1l-4.2-14.8c0.1,5.5,0.2,10.6,0.4,15.2
	L60.7,79.7z"/>
<path display="inline" fill="#FF2B57" d="M74.9,75.5c0-4.1,0-8.4,0-12.8c0-4.4,0-8.9,0-13.5C76,49.1,77,49,78,49
	c2.6,0,4.5,0.7,5.8,2c1.7,1.8,2.6,5.2,2.6,10.1v1.3c0,4.2-0.3,7.2-1,9c-0.7,2-2,3.3-3.9,3.9c-1.1,0.4-2.3,0.6-3.6,0.6
	C77,75.8,76,75.7,74.9,75.5z M78.8,53.3c-0.2,4-0.2,7.9-0.2,11.7c0,1.4,0,2.8,0,4.2c0.3,0.1,0.7,0.1,1,0.1c0.8,0,1.6-0.4,2.1-1.1
	c0.8-1,1.2-3.3,1.2-6.8v-0.1c0-3.5-0.4-5.8-1.2-7c-0.6-0.8-1.3-1.3-2.1-1.3C79.4,53.2,79.1,53.2,78.8,53.3z"/>
</svg>
